<?xml version="1.0" encoding="utf-8" standalone="no"?>
<!DOCTYPE svg PUBLIC "-//W3C//DTD SVG 1.1//EN"
  "http://www.w3.org/Graphics/SVG/1.1/DTD/svg11.dtd">
<svg height="432pt" version="1.1" viewBox="0 0 432 432" width="432pt" xmlns="http://www.w3.org/2000/svg" xmlns:xlink="http://www.w3.org/1999/xlink">
 <metadata>
  <rdf:RDF xmlns:cc="http://creativecommons.org/ns#" xmlns:dc="http://purl.org/dc/elements/1.1/" xmlns:rdf="http://www.w3.org/1999/02/22-rdf-syntax-ns#">
   <cc:Work>
    <dc:type rdf:resource="http://purl.org/dc/dcmitype/StillImage"/>
    <dc:date>2022-01-14T15:11:50.855114</dc:date>
    <dc:format>image/svg+xml</dc:format>
    <dc:creator>
     <cc:Agent>
      <dc:title>Matplotlib v3.4.2, https://matplotlib.org/</dc:title>
     </cc:Agent>
    </dc:creator>
   </cc:Work>
  </rdf:RDF>
 </metadata>
 <defs>
  <style type="text/css">*{stroke-linecap:butt;stroke-linejoin:round;}</style>
 </defs>
 <g id="figure_1">
  <g id="patch_1">
   <path d="M 0 432 
L 432 432 
L 432 0 
L 0 0 
z
" style="fill:#ffffff;"/>
  </g>
  <g id="axes_1">
   <g id="patch_2">
    <path d="M 30.24 401.76 
L 401.76 401.76 
L 401.76 30.24 
L 30.24 30.24 
z
" style="fill:#ffffff;"/>
   </g>
   <g id="matplotlib.axis_1">
    <g id="text_1">
     <!-- X -->
     <g transform="translate(212.575 413.358438)scale(0.1 -0.1)">
      <defs>
       <path d="M 403 4666 
L 1081 4666 
L 2241 2931 
L 3406 4666 
L 4084 4666 
L 2584 2425 
L 4184 0 
L 3506 0 
L 2194 1984 
L 872 0 
L 191 0 
L 1856 2491 
L 403 4666 
z
" id="DejaVuSans-58" transform="scale(0.015625)"/>
      </defs>
      <use xlink:href="#DejaVuSans-58"/>
     </g>
    </g>
   </g>
   <g id="matplotlib.axis_2">
    <g id="text_2">
     <!-- Y -->
     <g transform="translate(24.160313 219.053906)rotate(-90)scale(0.1 -0.1)">
      <defs>
       <path d="M -13 4666 
L 666 4666 
L 1959 2747 
L 3244 4666 
L 3922 4666 
L 2272 2222 
L 2272 0 
L 1638 0 
L 1638 2222 
L -13 4666 
z
" id="DejaVuSans-59" transform="scale(0.015625)"/>
      </defs>
      <use xlink:href="#DejaVuSans-59"/>
     </g>
    </g>
   </g>
   <g id="line2d_1">
    <defs>
     <path d="M -0.49999 0.49999 
L 0.50001 0.49999 
L 0.50001 -0.50001 
L -0.49999 -0.50001 
z
" id="m7f83d1be60"/>
    </defs>
    <g clip-path="url(#p8952d29d28)">
     <use x="30.24" xlink:href="#m7f83d1be60" y="216"/>
     <use x="33.992727" xlink:href="#m7f83d1be60" y="216"/>
     <use x="37.745455" xlink:href="#m7f83d1be60" y="216"/>
     <use x="41.498182" xlink:href="#m7f83d1be60" y="216"/>
     <use x="45.250909" xlink:href="#m7f83d1be60" y="216"/>
     <use x="49.003636" xlink:href="#m7f83d1be60" y="216"/>
     <use x="52.756364" xlink:href="#m7f83d1be60" y="216"/>
     <use x="56.509091" xlink:href="#m7f83d1be60" y="216"/>
     <use x="60.261818" xlink:href="#m7f83d1be60" y="216"/>
     <use x="64.014545" xlink:href="#m7f83d1be60" y="216"/>
     <use x="67.767273" xlink:href="#m7f83d1be60" y="216"/>
     <use x="71.52" xlink:href="#m7f83d1be60" y="216"/>
     <use x="75.272727" xlink:href="#m7f83d1be60" y="216"/>
     <use x="79.025455" xlink:href="#m7f83d1be60" y="216"/>
     <use x="82.778182" xlink:href="#m7f83d1be60" y="216"/>
     <use x="86.530909" xlink:href="#m7f83d1be60" y="216"/>
     <use x="90.283636" xlink:href="#m7f83d1be60" y="216"/>
     <use x="94.036364" xlink:href="#m7f83d1be60" y="216"/>
     <use x="97.789091" xlink:href="#m7f83d1be60" y="216"/>
     <use x="101.541818" xlink:href="#m7f83d1be60" y="216"/>
     <use x="105.294545" xlink:href="#m7f83d1be60" y="216"/>
     <use x="109.047273" xlink:href="#m7f83d1be60" y="216"/>
     <use x="112.8" xlink:href="#m7f83d1be60" y="216"/>
     <use x="116.552727" xlink:href="#m7f83d1be60" y="216"/>
     <use x="120.305455" xlink:href="#m7f83d1be60" y="216"/>
     <use x="124.058182" xlink:href="#m7f83d1be60" y="216"/>
     <use x="127.810909" xlink:href="#m7f83d1be60" y="216"/>
     <use x="131.563636" xlink:href="#m7f83d1be60" y="216"/>
     <use x="135.316364" xlink:href="#m7f83d1be60" y="216"/>
     <use x="139.069091" xlink:href="#m7f83d1be60" y="216"/>
     <use x="142.821818" xlink:href="#m7f83d1be60" y="216"/>
     <use x="146.574545" xlink:href="#m7f83d1be60" y="216"/>
     <use x="150.327273" xlink:href="#m7f83d1be60" y="216"/>
     <use x="154.08" xlink:href="#m7f83d1be60" y="216"/>
     <use x="157.832727" xlink:href="#m7f83d1be60" y="216"/>
     <use x="161.585455" xlink:href="#m7f83d1be60" y="216"/>
     <use x="165.338182" xlink:href="#m7f83d1be60" y="216"/>
     <use x="169.090909" xlink:href="#m7f83d1be60" y="216"/>
     <use x="172.843636" xlink:href="#m7f83d1be60" y="216"/>
     <use x="176.596364" xlink:href="#m7f83d1be60" y="216"/>
     <use x="180.349091" xlink:href="#m7f83d1be60" y="216"/>
     <use x="184.101818" xlink:href="#m7f83d1be60" y="216"/>
     <use x="187.854545" xlink:href="#m7f83d1be60" y="216"/>
     <use x="191.607273" xlink:href="#m7f83d1be60" y="216"/>
     <use x="195.36" xlink:href="#m7f83d1be60" y="216"/>
     <use x="199.112727" xlink:href="#m7f83d1be60" y="216"/>
     <use x="202.865455" xlink:href="#m7f83d1be60" y="216"/>
     <use x="206.618182" xlink:href="#m7f83d1be60" y="216"/>
     <use x="210.370909" xlink:href="#m7f83d1be60" y="216"/>
     <use x="214.123636" xlink:href="#m7f83d1be60" y="216"/>
     <use x="217.876364" xlink:href="#m7f83d1be60" y="216"/>
     <use x="221.629091" xlink:href="#m7f83d1be60" y="216"/>
     <use x="225.381818" xlink:href="#m7f83d1be60" y="216"/>
     <use x="229.134545" xlink:href="#m7f83d1be60" y="216"/>
     <use x="232.887273" xlink:href="#m7f83d1be60" y="216"/>
     <use x="236.64" xlink:href="#m7f83d1be60" y="216"/>
     <use x="240.392727" xlink:href="#m7f83d1be60" y="216"/>
     <use x="244.145455" xlink:href="#m7f83d1be60" y="216"/>
     <use x="247.898182" xlink:href="#m7f83d1be60" y="216"/>
     <use x="251.650909" xlink:href="#m7f83d1be60" y="216"/>
     <use x="255.403636" xlink:href="#m7f83d1be60" y="216"/>
     <use x="259.156364" xlink:href="#m7f83d1be60" y="216"/>
     <use x="262.909091" xlink:href="#m7f83d1be60" y="216"/>
     <use x="266.661818" xlink:href="#m7f83d1be60" y="216"/>
     <use x="270.414545" xlink:href="#m7f83d1be60" y="216"/>
     <use x="274.167273" xlink:href="#m7f83d1be60" y="216"/>
     <use x="277.92" xlink:href="#m7f83d1be60" y="216"/>
     <use x="281.672727" xlink:href="#m7f83d1be60" y="216"/>
     <use x="285.425455" xlink:href="#m7f83d1be60" y="216"/>
     <use x="289.178182" xlink:href="#m7f83d1be60" y="216"/>
     <use x="292.930909" xlink:href="#m7f83d1be60" y="216"/>
     <use x="296.683636" xlink:href="#m7f83d1be60" y="216"/>
     <use x="300.436364" xlink:href="#m7f83d1be60" y="216"/>
     <use x="304.189091" xlink:href="#m7f83d1be60" y="216"/>
     <use x="307.941818" xlink:href="#m7f83d1be60" y="216"/>
     <use x="311.694545" xlink:href="#m7f83d1be60" y="216"/>
     <use x="315.447273" xlink:href="#m7f83d1be60" y="216"/>
     <use x="319.2" xlink:href="#m7f83d1be60" y="216"/>
     <use x="322.952727" xlink:href="#m7f83d1be60" y="216"/>
     <use x="326.705455" xlink:href="#m7f83d1be60" y="216"/>
     <use x="330.458182" xlink:href="#m7f83d1be60" y="216"/>
     <use x="334.210909" xlink:href="#m7f83d1be60" y="216"/>
     <use x="337.963636" xlink:href="#m7f83d1be60" y="216"/>
     <use x="341.716364" xlink:href="#m7f83d1be60" y="216"/>
     <use x="345.469091" xlink:href="#m7f83d1be60" y="216"/>
     <use x="349.221818" xlink:href="#m7f83d1be60" y="216"/>
     <use x="352.974545" xlink:href="#m7f83d1be60" y="216"/>
     <use x="356.727273" xlink:href="#m7f83d1be60" y="216"/>
     <use x="360.48" xlink:href="#m7f83d1be60" y="216"/>
     <use x="364.232727" xlink:href="#m7f83d1be60" y="216"/>
     <use x="367.985455" xlink:href="#m7f83d1be60" y="216"/>
     <use x="371.738182" xlink:href="#m7f83d1be60" y="216"/>
     <use x="375.490909" xlink:href="#m7f83d1be60" y="216"/>
     <use x="379.243636" xlink:href="#m7f83d1be60" y="216"/>
     <use x="382.996364" xlink:href="#m7f83d1be60" y="216"/>
     <use x="386.749091" xlink:href="#m7f83d1be60" y="216"/>
     <use x="390.501818" xlink:href="#m7f83d1be60" y="216"/>
     <use x="394.254545" xlink:href="#m7f83d1be60" y="216"/>
     <use x="398.007273" xlink:href="#m7f83d1be60" y="216"/>
     <use x="401.76" xlink:href="#m7f83d1be60" y="216"/>
    </g>
   </g>
   <g id="line2d_2">
    <g clip-path="url(#p8952d29d28)">
     <use x="216" xlink:href="#m7f83d1be60" y="401.76"/>
     <use x="216" xlink:href="#m7f83d1be60" y="398.007273"/>
     <use x="216" xlink:href="#m7f83d1be60" y="394.254545"/>
     <use x="216" xlink:href="#m7f83d1be60" y="390.501818"/>
     <use x="216" xlink:href="#m7f83d1be60" y="386.749091"/>
     <use x="216" xlink:href="#m7f83d1be60" y="382.996364"/>
     <use x="216" xlink:href="#m7f83d1be60" y="379.243636"/>
     <use x="216" xlink:href="#m7f83d1be60" y="375.490909"/>
     <use x="216" xlink:href="#m7f83d1be60" y="371.738182"/>
     <use x="216" xlink:href="#m7f83d1be60" y="367.985455"/>
     <use x="216" xlink:href="#m7f83d1be60" y="364.232727"/>
     <use x="216" xlink:href="#m7f83d1be60" y="360.48"/>
     <use x="216" xlink:href="#m7f83d1be60" y="356.727273"/>
     <use x="216" xlink:href="#m7f83d1be60" y="352.974545"/>
     <use x="216" xlink:href="#m7f83d1be60" y="349.221818"/>
     <use x="216" xlink:href="#m7f83d1be60" y="345.469091"/>
     <use x="216" xlink:href="#m7f83d1be60" y="341.716364"/>
     <use x="216" xlink:href="#m7f83d1be60" y="337.963636"/>
     <use x="216" xlink:href="#m7f83d1be60" y="334.210909"/>
     <use x="216" xlink:href="#m7f83d1be60" y="330.458182"/>
     <use x="216" xlink:href="#m7f83d1be60" y="326.705455"/>
     <use x="216" xlink:href="#m7f83d1be60" y="322.952727"/>
     <use x="216" xlink:href="#m7f83d1be60" y="319.2"/>
     <use x="216" xlink:href="#m7f83d1be60" y="315.447273"/>
     <use x="216" xlink:href="#m7f83d1be60" y="311.694545"/>
     <use x="216" xlink:href="#m7f83d1be60" y="307.941818"/>
     <use x="216" xlink:href="#m7f83d1be60" y="304.189091"/>
     <use x="216" xlink:href="#m7f83d1be60" y="300.436364"/>
     <use x="216" xlink:href="#m7f83d1be60" y="296.683636"/>
     <use x="216" xlink:href="#m7f83d1be60" y="292.930909"/>
     <use x="216" xlink:href="#m7f83d1be60" y="289.178182"/>
     <use x="216" xlink:href="#m7f83d1be60" y="285.425455"/>
     <use x="216" xlink:href="#m7f83d1be60" y="281.672727"/>
     <use x="216" xlink:href="#m7f83d1be60" y="277.92"/>
     <use x="216" xlink:href="#m7f83d1be60" y="274.167273"/>
     <use x="216" xlink:href="#m7f83d1be60" y="270.414545"/>
     <use x="216" xlink:href="#m7f83d1be60" y="266.661818"/>
     <use x="216" xlink:href="#m7f83d1be60" y="262.909091"/>
     <use x="216" xlink:href="#m7f83d1be60" y="259.156364"/>
     <use x="216" xlink:href="#m7f83d1be60" y="255.403636"/>
     <use x="216" xlink:href="#m7f83d1be60" y="251.650909"/>
     <use x="216" xlink:href="#m7f83d1be60" y="247.898182"/>
     <use x="216" xlink:href="#m7f83d1be60" y="244.145455"/>
     <use x="216" xlink:href="#m7f83d1be60" y="240.392727"/>
     <use x="216" xlink:href="#m7f83d1be60" y="236.64"/>
     <use x="216" xlink:href="#m7f83d1be60" y="232.887273"/>
     <use x="216" xlink:href="#m7f83d1be60" y="229.134545"/>
     <use x="216" xlink:href="#m7f83d1be60" y="225.381818"/>
     <use x="216" xlink:href="#m7f83d1be60" y="221.629091"/>
     <use x="216" xlink:href="#m7f83d1be60" y="217.876364"/>
     <use x="216" xlink:href="#m7f83d1be60" y="214.123636"/>
     <use x="216" xlink:href="#m7f83d1be60" y="210.370909"/>
     <use x="216" xlink:href="#m7f83d1be60" y="206.618182"/>
     <use x="216" xlink:href="#m7f83d1be60" y="202.865455"/>
     <use x="216" xlink:href="#m7f83d1be60" y="199.112727"/>
     <use x="216" xlink:href="#m7f83d1be60" y="195.36"/>
     <use x="216" xlink:href="#m7f83d1be60" y="191.607273"/>
     <use x="216" xlink:href="#m7f83d1be60" y="187.854545"/>
     <use x="216" xlink:href="#m7f83d1be60" y="184.101818"/>
     <use x="216" xlink:href="#m7f83d1be60" y="180.349091"/>
     <use x="216" xlink:href="#m7f83d1be60" y="176.596364"/>
     <use x="216" xlink:href="#m7f83d1be60" y="172.843636"/>
     <use x="216" xlink:href="#m7f83d1be60" y="169.090909"/>
     <use x="216" xlink:href="#m7f83d1be60" y="165.338182"/>
     <use x="216" xlink:href="#m7f83d1be60" y="161.585455"/>
     <use x="216" xlink:href="#m7f83d1be60" y="157.832727"/>
     <use x="216" xlink:href="#m7f83d1be60" y="154.08"/>
     <use x="216" xlink:href="#m7f83d1be60" y="150.327273"/>
     <use x="216" xlink:href="#m7f83d1be60" y="146.574545"/>
     <use x="216" xlink:href="#m7f83d1be60" y="142.821818"/>
     <use x="216" xlink:href="#m7f83d1be60" y="139.069091"/>
     <use x="216" xlink:href="#m7f83d1be60" y="135.316364"/>
     <use x="216" xlink:href="#m7f83d1be60" y="131.563636"/>
     <use x="216" xlink:href="#m7f83d1be60" y="127.810909"/>
     <use x="216" xlink:href="#m7f83d1be60" y="124.058182"/>
     <use x="216" xlink:href="#m7f83d1be60" y="120.305455"/>
     <use x="216" xlink:href="#m7f83d1be60" y="116.552727"/>
     <use x="216" xlink:href="#m7f83d1be60" y="112.8"/>
     <use x="216" xlink:href="#m7f83d1be60" y="109.047273"/>
     <use x="216" xlink:href="#m7f83d1be60" y="105.294545"/>
     <use x="216" xlink:href="#m7f83d1be60" y="101.541818"/>
     <use x="216" xlink:href="#m7f83d1be60" y="97.789091"/>
     <use x="216" xlink:href="#m7f83d1be60" y="94.036364"/>
     <use x="216" xlink:href="#m7f83d1be60" y="90.283636"/>
     <use x="216" xlink:href="#m7f83d1be60" y="86.530909"/>
     <use x="216" xlink:href="#m7f83d1be60" y="82.778182"/>
     <use x="216" xlink:href="#m7f83d1be60" y="79.025455"/>
     <use x="216" xlink:href="#m7f83d1be60" y="75.272727"/>
     <use x="216" xlink:href="#m7f83d1be60" y="71.52"/>
     <use x="216" xlink:href="#m7f83d1be60" y="67.767273"/>
     <use x="216" xlink:href="#m7f83d1be60" y="64.014545"/>
     <use x="216" xlink:href="#m7f83d1be60" y="60.261818"/>
     <use x="216" xlink:href="#m7f83d1be60" y="56.509091"/>
     <use x="216" xlink:href="#m7f83d1be60" y="52.756364"/>
     <use x="216" xlink:href="#m7f83d1be60" y="49.003636"/>
     <use x="216" xlink:href="#m7f83d1be60" y="45.250909"/>
     <use x="216" xlink:href="#m7f83d1be60" y="41.498182"/>
     <use x="216" xlink:href="#m7f83d1be60" y="37.745455"/>
     <use x="216" xlink:href="#m7f83d1be60" y="33.992727"/>
     <use x="216" xlink:href="#m7f83d1be60" y="30.24"/>
    </g>
   </g>
   <g id="line2d_3">
    <path clip-path="url(#p8952d29d28)" d="M 30.24 216 
L 215.702784 215.892082 
L 215.888544 215.711349 
L 215.962848 215.287282 
L 216 30.24 
L 216.037152 215.287282 
L 216.18576 215.822855 
L 216.482976 215.938741 
L 217.597536 215.988794 
L 228.483072 215.999898 
L 401.76 216 
L 401.76 216 
" style="fill:none;stroke:#0ccebe;stroke-linecap:square;"/>
   </g>
   <g id="line2d_4">
    <path clip-path="url(#p8952d29d28)" d="M 30.24 216 
L 215.702784 216.107918 
L 215.888544 216.288651 
L 215.962848 216.712718 
L 216 401.76 
L 216.037152 216.712718 
L 216.18576 216.177145 
L 216.482976 216.061259 
L 217.597536 216.011206 
L 228.483072 216.000102 
L 401.76 216 
L 401.76 216 
" style="fill:none;stroke:#0ccebe;stroke-linecap:square;"/>
   </g>
   <g id="line2d_5">
    <path clip-path="url(#p8952d29d28)" d="M 30.24 216 
L 39.230784 215.888496 
L 47.8872 215.559704 
L 56.209248 215.022782 
L 64.23408 214.283772 
L 71.961696 213.350319 
L 79.392096 212.230804 
L 86.562432 210.927069 
L 93.472704 209.445503 
L 100.122912 207.793162 
L 106.513056 205.977843 
L 112.680288 203.99551 
L 118.624608 201.851246 
L 124.346016 199.550719 
L 129.844512 197.10027 
L 135.120096 194.506999 
L 140.20992 191.757866 
L 145.113984 188.855935 
L 149.832288 185.804687 
L 154.364832 182.608092 
L 158.711616 179.270691 
L 162.87264 175.797701 
L 166.885056 172.160048 
L 170.748864 168.355721 
L 174.426912 164.423753 
L 177.956352 160.327111 
L 181.337184 156.063504 
L 184.569408 151.630176 
L 187.653024 147.023782 
L 190.588032 142.240217 
L 193.374432 137.27438 
L 196.012224 132.119845 
L 198.501408 126.768395 
L 200.841984 121.209324 
L 203.033952 115.428383 
L 205.077312 109.406124 
L 206.934912 103.246363 
L 208.643904 96.815451 
L 210.204288 90.067804 
L 211.578912 83.134226 
L 212.767776 76.01463 
L 213.808032 68.405434 
L 214.625376 60.824735 
L 215.25696 52.993948 
L 215.702784 44.803584 
L 215.925696 37.596096 
L 216 30.24 
L 216.037152 35.456934 
L 216.297216 44.803584 
L 216.780192 53.537056 
L 217.448928 61.60283 
L 218.340576 69.602441 
L 219.417984 77.217441 
L 220.681152 84.53582 
L 222.13008 91.59988 
L 223.727616 98.287893 
L 225.510912 104.794468 
L 227.442816 111.006023 
L 229.523328 116.958248 
L 231.7896 122.766162 
L 234.20448 128.339677 
L 236.767968 133.695343 
L 239.480064 138.845616 
L 242.340768 143.800069 
L 245.35008 148.566199 
L 248.508 153.149967 
L 251.814528 157.556177 
L 255.269664 161.788752 
L 258.873408 165.850925 
L 262.62576 169.745389 
L 266.52672 173.474406 
L 270.576288 177.03989 
L 274.811616 180.472358 
L 279.195552 183.739679 
L 283.765248 186.867911 
L 288.520704 189.852413 
L 293.46192 192.689116 
L 298.588896 195.374444 
L 303.901632 197.905245 
L 309.43728 200.293966 
L 315.158688 202.519835 
L 321.103008 204.593141 
L 327.27024 206.507999 
L 333.660384 208.259124 
L 340.310592 209.850026 
L 347.220864 211.2728 
L 354.3912 212.520279 
L 361.8216 213.585959 
L 369.512064 214.463934 
L 377.499744 215.151529 
L 385.78464 215.640916 
L 394.403904 215.925696 
L 401.76 216 
L 401.76 216 
" style="fill:none;stroke:#f49788;stroke-linecap:square;"/>
   </g>
   <g id="line2d_6">
    <path clip-path="url(#p8952d29d28)" d="M 30.24 216 
L 39.230784 216.111504 
L 47.8872 216.440296 
L 56.209248 216.977218 
L 64.23408 217.716228 
L 71.961696 218.649681 
L 79.392096 219.769196 
L 86.562432 221.072931 
L 93.472704 222.554497 
L 100.122912 224.206838 
L 106.513056 226.022157 
L 112.680288 228.00449 
L 118.624608 230.148754 
L 124.346016 232.449281 
L 129.844512 234.89973 
L 135.120096 237.493001 
L 140.20992 240.242134 
L 145.113984 243.144065 
L 149.832288 246.195313 
L 154.364832 249.391908 
L 158.711616 252.729309 
L 162.87264 256.202299 
L 166.885056 259.839952 
L 170.748864 263.644279 
L 174.426912 267.576247 
L 177.956352 271.672889 
L 181.337184 275.936496 
L 184.569408 280.369824 
L 187.653024 284.976218 
L 190.588032 289.759783 
L 193.374432 294.72562 
L 196.012224 299.880155 
L 198.501408 305.231605 
L 200.841984 310.790676 
L 203.033952 316.571617 
L 205.077312 322.593876 
L 206.934912 328.753637 
L 208.643904 335.184549 
L 210.204288 341.932196 
L 211.578912 348.865774 
L 212.767776 355.98537 
L 213.808032 363.594566 
L 214.625376 371.175265 
L 215.25696 379.006052 
L 215.702784 387.196416 
L 215.925696 394.403904 
L 216 401.76 
L 216.037152 396.543066 
L 216.297216 387.196416 
L 216.780192 378.462944 
L 217.448928 370.39717 
L 218.340576 362.397559 
L 219.417984 354.782559 
L 220.681152 347.46418 
L 222.13008 340.40012 
L 223.727616 333.712107 
L 225.510912 327.205532 
L 227.442816 320.993977 
L 229.523328 315.041752 
L 231.7896 309.233838 
L 234.20448 303.660323 
L 236.767968 298.304657 
L 239.480064 293.154384 
L 242.340768 288.199931 
L 245.35008 283.433801 
L 248.508 278.850033 
L 251.814528 274.443823 
L 255.269664 270.211248 
L 258.873408 266.149075 
L 262.62576 262.254611 
L 266.52672 258.525594 
L 270.576288 254.96011 
L 274.811616 251.527642 
L 279.195552 248.260321 
L 283.765248 245.132089 
L 288.520704 242.147587 
L 293.46192 239.310884 
L 298.588896 236.625556 
L 303.901632 234.094755 
L 309.43728 231.706034 
L 315.158688 229.480165 
L 321.103008 227.406859 
L 327.27024 225.492001 
L 333.660384 223.740876 
L 340.310592 222.149974 
L 347.220864 220.7272 
L 354.3912 219.479721 
L 361.8216 218.414041 
L 369.512064 217.536066 
L 377.499744 216.848471 
L 385.78464 216.359084 
L 394.403904 216.074304 
L 401.76 216 
L 401.76 216 
" style="fill:none;stroke:#f49788;stroke-linecap:square;"/>
   </g>
   <g id="line2d_7">
    <path clip-path="url(#p8952d29d28)" d="M 30.24 216 
L 216 30.24 
L 216.074304 30.314304 
L 401.76 216 
L 401.76 216 
" style="fill:none;stroke:#46d186;stroke-linecap:square;"/>
   </g>
   <g id="line2d_8">
    <path clip-path="url(#p8952d29d28)" d="M 30.24 216 
L 216 401.76 
L 216.074304 401.685696 
L 401.76 216 
L 401.76 216 
" style="fill:none;stroke:#46d186;stroke-linecap:square;"/>
   </g>
   <g id="line2d_9">
    <path clip-path="url(#p8952d29d28)" d="M 30.24 216 
L 30.42576 207.694637 
L 30.834432 201.151093 
L 31.466016 194.693045 
L 32.320512 188.275944 
L 33.39792 181.893432 
L 34.69824 175.546948 
L 36.221472 169.240418 
L 37.930464 163.103706 
L 39.862368 156.988881 
L 42.017184 150.909622 
L 44.35776 144.966775 
L 46.921248 139.063967 
L 49.670496 133.288008 
L 52.642656 127.562702 
L 55.800576 121.963187 
L 59.144256 116.485915 
L 62.673696 111.129498 
L 66.388896 105.894164 
L 70.289856 100.781375 
L 74.376576 95.79358 
L 78.611904 90.974848 
L 83.032992 86.282798 
L 87.602688 81.758025 
L 92.320992 77.398844 
L 97.187904 73.20482 
L 102.203424 69.176579 
L 107.367552 65.315665 
L 112.643136 61.649308 
L 118.030176 58.175125 
L 123.528672 54.891865 
L 129.138624 51.799272 
L 134.860032 48.897986 
L 140.692896 46.189465 
L 146.600064 43.690898 
L 152.618688 41.387323 
L 158.711616 39.294543 
L 164.841696 37.42339 
L 171.04608 35.761484 
L 177.287616 34.318606 
L 183.603456 33.086792 
L 189.956448 32.074714 
L 196.346592 31.282591 
L 202.736736 30.714104 
L 209.164032 30.365824 
L 215.591328 30.24045 
L 222.018624 30.337527 
L 228.44592 30.657407 
L 234.836064 31.197456 
L 241.226208 31.96083 
L 247.5792 32.943911 
L 253.89504 34.146368 
L 260.173728 35.568685 
L 266.378112 37.201724 
L 272.545344 39.055371 
L 278.638272 41.119399 
L 284.656896 43.393487 
L 290.601216 45.878173 
L 296.43408 48.557065 
L 302.19264 51.447253 
L 307.839744 54.530997 
L 313.375392 57.807678 
L 318.799584 61.277593 
L 324.075168 64.915468 
L 329.239296 68.746343 
L 334.254816 72.742972 
L 339.121728 76.903567 
L 343.840032 81.227214 
L 348.409728 85.714001 
L 352.830816 90.36519 
L 357.103296 95.183455 
L 361.190016 100.126634 
L 365.128128 105.240896 
L 368.88048 110.480635 
L 372.447072 115.844664 
L 375.827904 121.333117 
L 379.022976 126.947842 
L 381.995136 132.618992 
L 384.781536 138.414108 
L 387.345024 144.252802 
L 389.722752 150.218673 
L 391.877568 156.218241 
L 393.846624 162.359009 
L 395.592768 168.531955 
L 397.116 174.723225 
L 398.41632 180.913481 
L 399.53088 187.308648 
L 400.422528 193.74896 
L 401.091264 200.251934 
L 401.499936 206.173946 
L 401.722848 212.284986 
L 401.76 216 
L 401.76 216 
" style="fill:none;stroke:#15484b;stroke-linecap:square;"/>
   </g>
   <g id="line2d_10">
    <path clip-path="url(#p8952d29d28)" d="M 30.24 216 
L 30.42576 224.305363 
L 30.834432 230.848907 
L 31.466016 237.306955 
L 32.320512 243.724056 
L 33.39792 250.106568 
L 34.69824 256.453052 
L 36.221472 262.759582 
L 37.930464 268.896294 
L 39.862368 275.011119 
L 42.017184 281.090378 
L 44.35776 287.033225 
L 46.921248 292.936033 
L 49.670496 298.711992 
L 52.642656 304.437298 
L 55.800576 310.036813 
L 59.144256 315.514085 
L 62.673696 320.870502 
L 66.388896 326.105836 
L 70.289856 331.218625 
L 74.376576 336.20642 
L 78.611904 341.025152 
L 83.032992 345.717202 
L 87.602688 350.241975 
L 92.320992 354.601156 
L 97.187904 358.79518 
L 102.203424 362.823421 
L 107.367552 366.684335 
L 112.643136 370.350692 
L 118.030176 373.824875 
L 123.528672 377.108135 
L 129.138624 380.200728 
L 134.860032 383.102014 
L 140.692896 385.810535 
L 146.600064 388.309102 
L 152.618688 390.612677 
L 158.711616 392.705457 
L 164.841696 394.57661 
L 171.04608 396.238516 
L 177.287616 397.681394 
L 183.603456 398.913208 
L 189.956448 399.925286 
L 196.346592 400.717409 
L 202.736736 401.285896 
L 209.164032 401.634176 
L 215.591328 401.75955 
L 222.018624 401.662473 
L 228.44592 401.342593 
L 234.836064 400.802544 
L 241.226208 400.03917 
L 247.5792 399.056089 
L 253.89504 397.853632 
L 260.173728 396.431315 
L 266.378112 394.798276 
L 272.545344 392.944629 
L 278.638272 390.880601 
L 284.656896 388.606513 
L 290.601216 386.121827 
L 296.43408 383.442935 
L 302.19264 380.552747 
L 307.839744 377.469003 
L 313.375392 374.192322 
L 318.799584 370.722407 
L 324.075168 367.084532 
L 329.239296 363.253657 
L 334.254816 359.257028 
L 339.121728 355.096433 
L 343.840032 350.772786 
L 348.409728 346.285999 
L 352.830816 341.63481 
L 357.103296 336.816545 
L 361.190016 331.873366 
L 365.128128 326.759104 
L 368.88048 321.519365 
L 372.447072 316.155336 
L 375.827904 310.666883 
L 379.022976 305.052158 
L 381.995136 299.381008 
L 384.781536 293.585892 
L 387.345024 287.747198 
L 389.722752 281.781327 
L 391.877568 275.781759 
L 393.846624 269.640991 
L 395.592768 263.468045 
L 397.116 257.276775 
L 398.41632 251.086519 
L 399.53088 244.691352 
L 400.422528 238.25104 
L 401.091264 231.748066 
L 401.499936 225.826054 
L 401.722848 219.715014 
L 401.76 216 
L 401.76 216 
" style="fill:none;stroke:#15484b;stroke-linecap:square;"/>
   </g>
   <g id="line2d_11">
    <path clip-path="url(#p8952d29d28)" d="M 30.24 216 
L 30.388608 191.135859 
L 30.722976 179.192144 
L 31.243104 169.081789 
L 31.91184 160.439183 
L 32.766336 152.340143 
L 33.76944 144.963005 
L 34.921152 138.113401 
L 36.258624 131.512605 
L 37.744704 125.308788 
L 39.379392 119.43935 
L 41.162688 113.861489 
L 43.094592 108.544623 
L 45.175104 103.466172 
L 47.404224 98.609038 
L 49.781952 93.960021 
L 52.308288 89.508775 
L 54.983232 85.247092 
L 57.806784 81.168404 
L 60.778944 77.267414 
L 63.899712 73.539824 
L 67.169088 69.982128 
L 70.587072 66.59145 
L 74.153664 63.365413 
L 77.906016 60.272805 
L 81.806976 57.346426 
L 85.893696 54.560068 
L 90.166176 51.9187 
L 94.624416 49.426501 
L 99.268416 47.086937 
L 104.098176 44.902802 
L 109.150848 42.862085 
L 114.426432 40.971159 
L 119.96208 39.224132 
L 125.757792 37.629129 
L 131.85072 36.184248 
L 138.278016 34.890766 
L 145.076832 33.752172 
L 152.28432 32.77308 
L 160.011936 31.951068 
L 168.333984 31.292114 
L 177.510528 30.792449 
L 187.913088 30.454283 
L 200.58192 30.275412 
L 221.609952 30.241706 
L 239.740128 30.369338 
L 251.48016 30.672457 
L 261.362592 31.146125 
L 270.130464 31.784958 
L 278.155296 32.58916 
L 285.622848 33.55904 
L 292.607424 34.688659 
L 299.183328 35.975366 
L 305.424864 37.422052 
L 311.332032 39.01756 
L 316.979136 40.772363 
L 322.366176 42.679165 
L 327.493152 44.728808 
L 332.397216 46.927855 
L 337.078368 49.26923 
L 341.57376 51.766205 
L 345.84624 54.391671 
L 349.93296 57.160949 
L 353.871072 60.097995 
L 357.623424 63.173442 
L 361.227168 66.415924 
L 364.645152 69.789637 
L 367.914528 73.328645 
L 371.035296 77.035541 
L 374.007456 80.913479 
L 376.831008 84.966317 
L 379.505952 89.198799 
L 382.032288 93.616781 
L 384.410016 98.227544 
L 386.639136 103.040207 
L 388.719648 108.066307 
L 390.651552 113.320632 
L 392.434848 118.822462 
L 394.069536 124.597488 
L 395.555616 130.680942 
L 396.855936 136.928133 
L 398.007648 143.527098 
L 399.010752 150.546624 
L 399.865248 158.095333 
L 400.571136 166.364569 
L 401.091264 174.988531 
L 401.462784 184.681502 
L 401.685696 196.262686 
L 401.76 216 
L 401.76 216 
" style="fill:none;stroke:#53ce39;stroke-linecap:square;"/>
   </g>
   <g id="line2d_12">
    <path clip-path="url(#p8952d29d28)" d="M 30.24 216 
L 30.388608 240.864141 
L 30.722976 252.807856 
L 31.243104 262.918211 
L 31.91184 271.560817 
L 32.766336 279.659857 
L 33.76944 287.036995 
L 34.921152 293.886599 
L 36.258624 300.487395 
L 37.744704 306.691212 
L 39.379392 312.56065 
L 41.162688 318.138511 
L 43.094592 323.455377 
L 45.175104 328.533828 
L 47.404224 333.390962 
L 49.781952 338.039979 
L 52.308288 342.491225 
L 54.983232 346.752908 
L 57.806784 350.831596 
L 60.778944 354.732586 
L 63.899712 358.460176 
L 67.169088 362.017872 
L 70.587072 365.40855 
L 74.153664 368.634587 
L 77.906016 371.727195 
L 81.806976 374.653574 
L 85.893696 377.439932 
L 90.166176 380.0813 
L 94.624416 382.573499 
L 99.268416 384.913063 
L 104.098176 387.097198 
L 109.150848 389.137915 
L 114.426432 391.028841 
L 119.96208 392.775868 
L 125.757792 394.370871 
L 131.85072 395.815752 
L 138.278016 397.109234 
L 145.076832 398.247828 
L 152.28432 399.22692 
L 160.011936 400.048932 
L 168.333984 400.707886 
L 177.510528 401.207551 
L 187.913088 401.545717 
L 200.58192 401.724588 
L 221.609952 401.758294 
L 239.740128 401.630662 
L 251.48016 401.327543 
L 261.362592 400.853875 
L 270.130464 400.215042 
L 278.155296 399.41084 
L 285.622848 398.44096 
L 292.607424 397.311341 
L 299.183328 396.024634 
L 305.424864 394.577948 
L 311.332032 392.98244 
L 316.979136 391.227637 
L 322.366176 389.320835 
L 327.493152 387.271192 
L 332.397216 385.072145 
L 337.078368 382.73077 
L 341.57376 380.233795 
L 345.84624 377.608329 
L 349.93296 374.839051 
L 353.871072 371.902005 
L 357.623424 368.826558 
L 361.227168 365.584076 
L 364.645152 362.210363 
L 367.914528 358.671355 
L 371.035296 354.964459 
L 374.007456 351.086521 
L 376.831008 347.033683 
L 379.505952 342.801201 
L 382.032288 338.383219 
L 384.410016 333.772456 
L 386.639136 328.959793 
L 388.719648 323.933693 
L 390.651552 318.679368 
L 392.434848 313.177538 
L 394.069536 307.402512 
L 395.555616 301.319058 
L 396.855936 295.071867 
L 398.007648 288.472902 
L 399.010752 281.453376 
L 399.865248 273.904667 
L 400.571136 265.635431 
L 401.091264 257.011469 
L 401.462784 247.318498 
L 401.685696 235.737314 
L 401.76 216 
L 401.76 216 
" style="fill:none;stroke:#53ce39;stroke-linecap:square;"/>
   </g>
   <g id="line2d_13">
    <path clip-path="url(#p8952d29d28)" d="M 30.24 216 
L 30.388608 101.421032 
L 30.685824 88.207679 
L 31.094496 79.751814 
L 31.614624 73.296811 
L 32.28336 67.764672 
L 33.063552 63.178239 
L 33.9552 59.259933 
L 34.958304 55.850357 
L 36.072864 52.848015 
L 37.29888 50.183449 
L 38.636352 47.806501 
L 40.08528 45.679386 
L 41.682816 43.731217 
L 43.42896 41.95868 
L 45.323712 40.355565 
L 47.404224 38.890157 
L 49.670496 37.565907 
L 52.196832 36.349546 
L 55.020384 35.242097 
L 58.178304 34.24745 
L 61.744896 33.362023 
L 65.831616 32.582778 
L 70.54992 31.915443 
L 76.12272 31.35851 
L 82.884384 30.914222 
L 91.466496 30.583481 
L 103.280832 30.366106 
L 122.74848 30.258888 
L 186.984288 30.24 
L 327.27024 30.350761 
L 341.127936 30.600381 
L 350.30448 30.978052 
L 357.289056 31.480303 
L 362.93616 32.103095 
L 367.654464 32.841277 
L 371.704032 33.695353 
L 375.233472 34.664286 
L 378.317088 35.737536 
L 381.066336 36.927515 
L 383.518368 38.229376 
L 385.710336 39.641381 
L 387.716544 41.199487 
L 389.536992 42.899043 
L 391.17168 44.728452 
L 392.65776 46.720533 
L 394.032384 48.936899 
L 395.295552 51.406594 
L 396.447264 54.166405 
L 397.48752 57.264344 
L 398.41632 60.765334 
L 399.233664 64.761083 
L 399.939552 69.388682 
L 400.533984 74.869682 
L 401.01696 81.606649 
L 401.351328 89.303413 
L 401.57424 98.846073 
L 401.722848 116.226291 
L 401.76 216 
L 401.76 216 
" style="fill:none;stroke:#d34782;stroke-linecap:square;"/>
   </g>
   <g id="line2d_14">
    <path clip-path="url(#p8952d29d28)" d="M 30.24 216 
L 30.388608 330.578968 
L 30.685824 343.792321 
L 31.094496 352.248186 
L 31.614624 358.703189 
L 32.28336 364.235328 
L 33.063552 368.821761 
L 33.9552 372.740067 
L 34.958304 376.149643 
L 36.072864 379.151985 
L 37.29888 381.816551 
L 38.636352 384.193499 
L 40.08528 386.320614 
L 41.682816 388.268783 
L 43.42896 390.04132 
L 45.323712 391.644435 
L 47.404224 393.109843 
L 49.670496 394.434093 
L 52.196832 395.650454 
L 55.020384 396.757903 
L 58.178304 397.75255 
L 61.744896 398.637977 
L 65.831616 399.417222 
L 70.54992 400.084557 
L 76.12272 400.64149 
L 82.884384 401.085778 
L 91.466496 401.416519 
L 103.280832 401.633894 
L 122.74848 401.741112 
L 186.984288 401.76 
L 327.27024 401.649239 
L 341.127936 401.399619 
L 350.30448 401.021948 
L 357.289056 400.519697 
L 362.93616 399.896905 
L 367.654464 399.158723 
L 371.704032 398.304647 
L 375.233472 397.335714 
L 378.317088 396.262464 
L 381.066336 395.072485 
L 383.518368 393.770624 
L 385.710336 392.358619 
L 387.716544 390.800513 
L 389.536992 389.100957 
L 391.17168 387.271548 
L 392.65776 385.279467 
L 394.032384 383.063101 
L 395.295552 380.593406 
L 396.447264 377.833595 
L 397.48752 374.735656 
L 398.41632 371.234666 
L 399.233664 367.238917 
L 399.939552 362.611318 
L 400.533984 357.130318 
L 401.01696 350.393351 
L 401.351328 342.696587 
L 401.57424 333.153927 
L 401.722848 315.773709 
L 401.76 216 
L 401.76 216 
" style="fill:none;stroke:#d34782;stroke-linecap:square;"/>
   </g>
   <g id="line2d_15">
    <path clip-path="url(#p8952d29d28)" d="M 30.24 216 
L 30.388608 34.944296 
L 30.648672 33.227129 
L 31.020192 32.214222 
L 31.503168 31.543324 
L 32.134752 31.063455 
L 32.989248 30.713204 
L 34.252416 30.461833 
L 36.295776 30.308786 
L 40.791168 30.24537 
L 79.132032 30.24 
L 396.521568 30.349459 
L 398.490624 30.584396 
L 399.568032 30.914994 
L 400.27392 31.340144 
L 400.794048 31.905626 
L 401.165568 32.627904 
L 401.462784 33.755763 
L 401.648544 35.446737 
L 401.722848 37.384322 
L 401.76 216 
L 401.76 216 
" style="fill:none;stroke:#a9bed4;stroke-linecap:square;"/>
   </g>
   <g id="line2d_16">
    <path clip-path="url(#p8952d29d28)" d="M 30.24 216 
L 30.388608 397.055704 
L 30.648672 398.772871 
L 31.020192 399.785778 
L 31.503168 400.456676 
L 32.134752 400.936545 
L 32.989248 401.286796 
L 34.252416 401.538167 
L 36.295776 401.691214 
L 40.791168 401.75463 
L 79.132032 401.76 
L 396.521568 401.650541 
L 398.490624 401.415604 
L 399.568032 401.085006 
L 400.27392 400.659856 
L 400.794048 400.094374 
L 401.165568 399.372096 
L 401.462784 398.244237 
L 401.648544 396.553263 
L 401.722848 394.615678 
L 401.76 216 
L 401.76 216 
" style="fill:none;stroke:#a9bed4;stroke-linecap:square;"/>
   </g>
   <g id="patch_3">
    <path d="M 30.24 401.76 
L 30.24 30.24 
" style="fill:none;stroke:#000000;stroke-linecap:square;stroke-linejoin:miter;stroke-width:0.8;"/>
   </g>
   <g id="patch_4">
    <path d="M 401.76 401.76 
L 401.76 30.24 
" style="fill:none;stroke:#000000;stroke-linecap:square;stroke-linejoin:miter;stroke-width:0.8;"/>
   </g>
   <g id="patch_5">
    <path d="M 30.24 401.76 
L 401.76 401.76 
" style="fill:none;stroke:#000000;stroke-linecap:square;stroke-linejoin:miter;stroke-width:0.8;"/>
   </g>
   <g id="patch_6">
    <path d="M 30.24 30.24 
L 401.76 30.24 
" style="fill:none;stroke:#000000;stroke-linecap:square;stroke-linejoin:miter;stroke-width:0.8;"/>
   </g>
   <g id="text_3">
    <!-- minkowski distance, distance = 1, p = [0.1, 0.5, 1, 2, 3, 10, 100] -->
    <g transform="translate(21.704063 24.24)scale(0.12 -0.12)">
     <defs>
      <path d="M 3328 2828 
Q 3544 3216 3844 3400 
Q 4144 3584 4550 3584 
Q 5097 3584 5394 3201 
Q 5691 2819 5691 2113 
L 5691 0 
L 5113 0 
L 5113 2094 
Q 5113 2597 4934 2840 
Q 4756 3084 4391 3084 
Q 3944 3084 3684 2787 
Q 3425 2491 3425 1978 
L 3425 0 
L 2847 0 
L 2847 2094 
Q 2847 2600 2669 2842 
Q 2491 3084 2119 3084 
Q 1678 3084 1418 2786 
Q 1159 2488 1159 1978 
L 1159 0 
L 581 0 
L 581 3500 
L 1159 3500 
L 1159 2956 
Q 1356 3278 1631 3431 
Q 1906 3584 2284 3584 
Q 2666 3584 2933 3390 
Q 3200 3197 3328 2828 
z
" id="DejaVuSans-6d" transform="scale(0.015625)"/>
      <path d="M 603 3500 
L 1178 3500 
L 1178 0 
L 603 0 
L 603 3500 
z
M 603 4863 
L 1178 4863 
L 1178 4134 
L 603 4134 
L 603 4863 
z
" id="DejaVuSans-69" transform="scale(0.015625)"/>
      <path d="M 3513 2113 
L 3513 0 
L 2938 0 
L 2938 2094 
Q 2938 2591 2744 2837 
Q 2550 3084 2163 3084 
Q 1697 3084 1428 2787 
Q 1159 2491 1159 1978 
L 1159 0 
L 581 0 
L 581 3500 
L 1159 3500 
L 1159 2956 
Q 1366 3272 1645 3428 
Q 1925 3584 2291 3584 
Q 2894 3584 3203 3211 
Q 3513 2838 3513 2113 
z
" id="DejaVuSans-6e" transform="scale(0.015625)"/>
      <path d="M 581 4863 
L 1159 4863 
L 1159 1991 
L 2875 3500 
L 3609 3500 
L 1753 1863 
L 3688 0 
L 2938 0 
L 1159 1709 
L 1159 0 
L 581 0 
L 581 4863 
z
" id="DejaVuSans-6b" transform="scale(0.015625)"/>
      <path d="M 1959 3097 
Q 1497 3097 1228 2736 
Q 959 2375 959 1747 
Q 959 1119 1226 758 
Q 1494 397 1959 397 
Q 2419 397 2687 759 
Q 2956 1122 2956 1747 
Q 2956 2369 2687 2733 
Q 2419 3097 1959 3097 
z
M 1959 3584 
Q 2709 3584 3137 3096 
Q 3566 2609 3566 1747 
Q 3566 888 3137 398 
Q 2709 -91 1959 -91 
Q 1206 -91 779 398 
Q 353 888 353 1747 
Q 353 2609 779 3096 
Q 1206 3584 1959 3584 
z
" id="DejaVuSans-6f" transform="scale(0.015625)"/>
      <path d="M 269 3500 
L 844 3500 
L 1563 769 
L 2278 3500 
L 2956 3500 
L 3675 769 
L 4391 3500 
L 4966 3500 
L 4050 0 
L 3372 0 
L 2619 2869 
L 1863 0 
L 1184 0 
L 269 3500 
z
" id="DejaVuSans-77" transform="scale(0.015625)"/>
      <path d="M 2834 3397 
L 2834 2853 
Q 2591 2978 2328 3040 
Q 2066 3103 1784 3103 
Q 1356 3103 1142 2972 
Q 928 2841 928 2578 
Q 928 2378 1081 2264 
Q 1234 2150 1697 2047 
L 1894 2003 
Q 2506 1872 2764 1633 
Q 3022 1394 3022 966 
Q 3022 478 2636 193 
Q 2250 -91 1575 -91 
Q 1294 -91 989 -36 
Q 684 19 347 128 
L 347 722 
Q 666 556 975 473 
Q 1284 391 1588 391 
Q 1994 391 2212 530 
Q 2431 669 2431 922 
Q 2431 1156 2273 1281 
Q 2116 1406 1581 1522 
L 1381 1569 
Q 847 1681 609 1914 
Q 372 2147 372 2553 
Q 372 3047 722 3315 
Q 1072 3584 1716 3584 
Q 2034 3584 2315 3537 
Q 2597 3491 2834 3397 
z
" id="DejaVuSans-73" transform="scale(0.015625)"/>
      <path id="DejaVuSans-20" transform="scale(0.015625)"/>
      <path d="M 2906 2969 
L 2906 4863 
L 3481 4863 
L 3481 0 
L 2906 0 
L 2906 525 
Q 2725 213 2448 61 
Q 2172 -91 1784 -91 
Q 1150 -91 751 415 
Q 353 922 353 1747 
Q 353 2572 751 3078 
Q 1150 3584 1784 3584 
Q 2172 3584 2448 3432 
Q 2725 3281 2906 2969 
z
M 947 1747 
Q 947 1113 1208 752 
Q 1469 391 1925 391 
Q 2381 391 2643 752 
Q 2906 1113 2906 1747 
Q 2906 2381 2643 2742 
Q 2381 3103 1925 3103 
Q 1469 3103 1208 2742 
Q 947 2381 947 1747 
z
" id="DejaVuSans-64" transform="scale(0.015625)"/>
      <path d="M 1172 4494 
L 1172 3500 
L 2356 3500 
L 2356 3053 
L 1172 3053 
L 1172 1153 
Q 1172 725 1289 603 
Q 1406 481 1766 481 
L 2356 481 
L 2356 0 
L 1766 0 
Q 1100 0 847 248 
Q 594 497 594 1153 
L 594 3053 
L 172 3053 
L 172 3500 
L 594 3500 
L 594 4494 
L 1172 4494 
z
" id="DejaVuSans-74" transform="scale(0.015625)"/>
      <path d="M 2194 1759 
Q 1497 1759 1228 1600 
Q 959 1441 959 1056 
Q 959 750 1161 570 
Q 1363 391 1709 391 
Q 2188 391 2477 730 
Q 2766 1069 2766 1631 
L 2766 1759 
L 2194 1759 
z
M 3341 1997 
L 3341 0 
L 2766 0 
L 2766 531 
Q 2569 213 2275 61 
Q 1981 -91 1556 -91 
Q 1019 -91 701 211 
Q 384 513 384 1019 
Q 384 1609 779 1909 
Q 1175 2209 1959 2209 
L 2766 2209 
L 2766 2266 
Q 2766 2663 2505 2880 
Q 2244 3097 1772 3097 
Q 1472 3097 1187 3025 
Q 903 2953 641 2809 
L 641 3341 
Q 956 3463 1253 3523 
Q 1550 3584 1831 3584 
Q 2591 3584 2966 3190 
Q 3341 2797 3341 1997 
z
" id="DejaVuSans-61" transform="scale(0.015625)"/>
      <path d="M 3122 3366 
L 3122 2828 
Q 2878 2963 2633 3030 
Q 2388 3097 2138 3097 
Q 1578 3097 1268 2742 
Q 959 2388 959 1747 
Q 959 1106 1268 751 
Q 1578 397 2138 397 
Q 2388 397 2633 464 
Q 2878 531 3122 666 
L 3122 134 
Q 2881 22 2623 -34 
Q 2366 -91 2075 -91 
Q 1284 -91 818 406 
Q 353 903 353 1747 
Q 353 2603 823 3093 
Q 1294 3584 2113 3584 
Q 2378 3584 2631 3529 
Q 2884 3475 3122 3366 
z
" id="DejaVuSans-63" transform="scale(0.015625)"/>
      <path d="M 3597 1894 
L 3597 1613 
L 953 1613 
Q 991 1019 1311 708 
Q 1631 397 2203 397 
Q 2534 397 2845 478 
Q 3156 559 3463 722 
L 3463 178 
Q 3153 47 2828 -22 
Q 2503 -91 2169 -91 
Q 1331 -91 842 396 
Q 353 884 353 1716 
Q 353 2575 817 3079 
Q 1281 3584 2069 3584 
Q 2775 3584 3186 3129 
Q 3597 2675 3597 1894 
z
M 3022 2063 
Q 3016 2534 2758 2815 
Q 2500 3097 2075 3097 
Q 1594 3097 1305 2825 
Q 1016 2553 972 2059 
L 3022 2063 
z
" id="DejaVuSans-65" transform="scale(0.015625)"/>
      <path d="M 750 794 
L 1409 794 
L 1409 256 
L 897 -744 
L 494 -744 
L 750 256 
L 750 794 
z
" id="DejaVuSans-2c" transform="scale(0.015625)"/>
      <path d="M 678 2906 
L 4684 2906 
L 4684 2381 
L 678 2381 
L 678 2906 
z
M 678 1631 
L 4684 1631 
L 4684 1100 
L 678 1100 
L 678 1631 
z
" id="DejaVuSans-3d" transform="scale(0.015625)"/>
      <path d="M 794 531 
L 1825 531 
L 1825 4091 
L 703 3866 
L 703 4441 
L 1819 4666 
L 2450 4666 
L 2450 531 
L 3481 531 
L 3481 0 
L 794 0 
L 794 531 
z
" id="DejaVuSans-31" transform="scale(0.015625)"/>
      <path d="M 1159 525 
L 1159 -1331 
L 581 -1331 
L 581 3500 
L 1159 3500 
L 1159 2969 
Q 1341 3281 1617 3432 
Q 1894 3584 2278 3584 
Q 2916 3584 3314 3078 
Q 3713 2572 3713 1747 
Q 3713 922 3314 415 
Q 2916 -91 2278 -91 
Q 1894 -91 1617 61 
Q 1341 213 1159 525 
z
M 3116 1747 
Q 3116 2381 2855 2742 
Q 2594 3103 2138 3103 
Q 1681 3103 1420 2742 
Q 1159 2381 1159 1747 
Q 1159 1113 1420 752 
Q 1681 391 2138 391 
Q 2594 391 2855 752 
Q 3116 1113 3116 1747 
z
" id="DejaVuSans-70" transform="scale(0.015625)"/>
      <path d="M 550 4863 
L 1875 4863 
L 1875 4416 
L 1125 4416 
L 1125 -397 
L 1875 -397 
L 1875 -844 
L 550 -844 
L 550 4863 
z
" id="DejaVuSans-5b" transform="scale(0.015625)"/>
      <path d="M 2034 4250 
Q 1547 4250 1301 3770 
Q 1056 3291 1056 2328 
Q 1056 1369 1301 889 
Q 1547 409 2034 409 
Q 2525 409 2770 889 
Q 3016 1369 3016 2328 
Q 3016 3291 2770 3770 
Q 2525 4250 2034 4250 
z
M 2034 4750 
Q 2819 4750 3233 4129 
Q 3647 3509 3647 2328 
Q 3647 1150 3233 529 
Q 2819 -91 2034 -91 
Q 1250 -91 836 529 
Q 422 1150 422 2328 
Q 422 3509 836 4129 
Q 1250 4750 2034 4750 
z
" id="DejaVuSans-30" transform="scale(0.015625)"/>
      <path d="M 684 794 
L 1344 794 
L 1344 0 
L 684 0 
L 684 794 
z
" id="DejaVuSans-2e" transform="scale(0.015625)"/>
      <path d="M 691 4666 
L 3169 4666 
L 3169 4134 
L 1269 4134 
L 1269 2991 
Q 1406 3038 1543 3061 
Q 1681 3084 1819 3084 
Q 2600 3084 3056 2656 
Q 3513 2228 3513 1497 
Q 3513 744 3044 326 
Q 2575 -91 1722 -91 
Q 1428 -91 1123 -41 
Q 819 9 494 109 
L 494 744 
Q 775 591 1075 516 
Q 1375 441 1709 441 
Q 2250 441 2565 725 
Q 2881 1009 2881 1497 
Q 2881 1984 2565 2268 
Q 2250 2553 1709 2553 
Q 1456 2553 1204 2497 
Q 953 2441 691 2322 
L 691 4666 
z
" id="DejaVuSans-35" transform="scale(0.015625)"/>
      <path d="M 1228 531 
L 3431 531 
L 3431 0 
L 469 0 
L 469 531 
Q 828 903 1448 1529 
Q 2069 2156 2228 2338 
Q 2531 2678 2651 2914 
Q 2772 3150 2772 3378 
Q 2772 3750 2511 3984 
Q 2250 4219 1831 4219 
Q 1534 4219 1204 4116 
Q 875 4013 500 3803 
L 500 4441 
Q 881 4594 1212 4672 
Q 1544 4750 1819 4750 
Q 2544 4750 2975 4387 
Q 3406 4025 3406 3419 
Q 3406 3131 3298 2873 
Q 3191 2616 2906 2266 
Q 2828 2175 2409 1742 
Q 1991 1309 1228 531 
z
" id="DejaVuSans-32" transform="scale(0.015625)"/>
      <path d="M 2597 2516 
Q 3050 2419 3304 2112 
Q 3559 1806 3559 1356 
Q 3559 666 3084 287 
Q 2609 -91 1734 -91 
Q 1441 -91 1130 -33 
Q 819 25 488 141 
L 488 750 
Q 750 597 1062 519 
Q 1375 441 1716 441 
Q 2309 441 2620 675 
Q 2931 909 2931 1356 
Q 2931 1769 2642 2001 
Q 2353 2234 1838 2234 
L 1294 2234 
L 1294 2753 
L 1863 2753 
Q 2328 2753 2575 2939 
Q 2822 3125 2822 3475 
Q 2822 3834 2567 4026 
Q 2313 4219 1838 4219 
Q 1578 4219 1281 4162 
Q 984 4106 628 3988 
L 628 4550 
Q 988 4650 1302 4700 
Q 1616 4750 1894 4750 
Q 2613 4750 3031 4423 
Q 3450 4097 3450 3541 
Q 3450 3153 3228 2886 
Q 3006 2619 2597 2516 
z
" id="DejaVuSans-33" transform="scale(0.015625)"/>
      <path d="M 1947 4863 
L 1947 -844 
L 622 -844 
L 622 -397 
L 1369 -397 
L 1369 4416 
L 622 4416 
L 622 4863 
L 1947 4863 
z
" id="DejaVuSans-5d" transform="scale(0.015625)"/>
     </defs>
     <use xlink:href="#DejaVuSans-6d"/>
     <use x="97.412109" xlink:href="#DejaVuSans-69"/>
     <use x="125.195312" xlink:href="#DejaVuSans-6e"/>
     <use x="188.574219" xlink:href="#DejaVuSans-6b"/>
     <use x="242.859375" xlink:href="#DejaVuSans-6f"/>
     <use x="304.041016" xlink:href="#DejaVuSans-77"/>
     <use x="385.828125" xlink:href="#DejaVuSans-73"/>
     <use x="437.927734" xlink:href="#DejaVuSans-6b"/>
     <use x="495.837891" xlink:href="#DejaVuSans-69"/>
     <use x="523.621094" xlink:href="#DejaVuSans-20"/>
     <use x="555.408203" xlink:href="#DejaVuSans-64"/>
     <use x="618.884766" xlink:href="#DejaVuSans-69"/>
     <use x="646.667969" xlink:href="#DejaVuSans-73"/>
     <use x="698.767578" xlink:href="#DejaVuSans-74"/>
     <use x="737.976562" xlink:href="#DejaVuSans-61"/>
     <use x="799.255859" xlink:href="#DejaVuSans-6e"/>
     <use x="862.634766" xlink:href="#DejaVuSans-63"/>
     <use x="917.615234" xlink:href="#DejaVuSans-65"/>
     <use x="979.138672" xlink:href="#DejaVuSans-2c"/>
     <use x="1010.925781" xlink:href="#DejaVuSans-20"/>
     <use x="1042.712891" xlink:href="#DejaVuSans-64"/>
     <use x="1106.189453" xlink:href="#DejaVuSans-69"/>
     <use x="1133.972656" xlink:href="#DejaVuSans-73"/>
     <use x="1186.072266" xlink:href="#DejaVuSans-74"/>
     <use x="1225.28125" xlink:href="#DejaVuSans-61"/>
     <use x="1286.560547" xlink:href="#DejaVuSans-6e"/>
     <use x="1349.939453" xlink:href="#DejaVuSans-63"/>
     <use x="1404.919922" xlink:href="#DejaVuSans-65"/>
     <use x="1466.443359" xlink:href="#DejaVuSans-20"/>
     <use x="1498.230469" xlink:href="#DejaVuSans-3d"/>
     <use x="1582.019531" xlink:href="#DejaVuSans-20"/>
     <use x="1613.806641" xlink:href="#DejaVuSans-31"/>
     <use x="1677.429688" xlink:href="#DejaVuSans-2c"/>
     <use x="1709.216797" xlink:href="#DejaVuSans-20"/>
     <use x="1741.003906" xlink:href="#DejaVuSans-70"/>
     <use x="1804.480469" xlink:href="#DejaVuSans-20"/>
     <use x="1836.267578" xlink:href="#DejaVuSans-3d"/>
     <use x="1920.056641" xlink:href="#DejaVuSans-20"/>
     <use x="1951.84375" xlink:href="#DejaVuSans-5b"/>
     <use x="1990.857422" xlink:href="#DejaVuSans-30"/>
     <use x="2054.480469" xlink:href="#DejaVuSans-2e"/>
     <use x="2086.267578" xlink:href="#DejaVuSans-31"/>
     <use x="2149.890625" xlink:href="#DejaVuSans-2c"/>
     <use x="2181.677734" xlink:href="#DejaVuSans-20"/>
     <use x="2213.464844" xlink:href="#DejaVuSans-30"/>
     <use x="2277.087891" xlink:href="#DejaVuSans-2e"/>
     <use x="2308.875" xlink:href="#DejaVuSans-35"/>
     <use x="2372.498047" xlink:href="#DejaVuSans-2c"/>
     <use x="2404.285156" xlink:href="#DejaVuSans-20"/>
     <use x="2436.072266" xlink:href="#DejaVuSans-31"/>
     <use x="2499.695312" xlink:href="#DejaVuSans-2c"/>
     <use x="2531.482422" xlink:href="#DejaVuSans-20"/>
     <use x="2563.269531" xlink:href="#DejaVuSans-32"/>
     <use x="2626.892578" xlink:href="#DejaVuSans-2c"/>
     <use x="2658.679688" xlink:href="#DejaVuSans-20"/>
     <use x="2690.466797" xlink:href="#DejaVuSans-33"/>
     <use x="2754.089844" xlink:href="#DejaVuSans-2c"/>
     <use x="2785.876953" xlink:href="#DejaVuSans-20"/>
     <use x="2817.664062" xlink:href="#DejaVuSans-31"/>
     <use x="2881.287109" xlink:href="#DejaVuSans-30"/>
     <use x="2944.910156" xlink:href="#DejaVuSans-2c"/>
     <use x="2976.697266" xlink:href="#DejaVuSans-20"/>
     <use x="3008.484375" xlink:href="#DejaVuSans-31"/>
     <use x="3072.107422" xlink:href="#DejaVuSans-30"/>
     <use x="3135.730469" xlink:href="#DejaVuSans-30"/>
     <use x="3199.353516" xlink:href="#DejaVuSans-5d"/>
    </g>
   </g>
   <g id="legend_1">
    <g id="patch_7">
     <path d="M 183.092188 396.76 
L 248.907813 396.76 
Q 250.907813 396.76 250.907813 394.76 
L 250.907813 293.013125 
Q 250.907813 291.013125 248.907813 291.013125 
L 183.092188 291.013125 
Q 181.092188 291.013125 181.092188 293.013125 
L 181.092188 394.76 
Q 181.092188 396.76 183.092188 396.76 
z
" style="fill:#ffffff;opacity:0.8;stroke:#cccccc;stroke-linejoin:miter;"/>
    </g>
    <g id="line2d_17">
     <path d="M 185.092188 299.111563 
L 205.092188 299.111563 
" style="fill:none;stroke:#0ccebe;stroke-linecap:square;"/>
    </g>
    <g id="line2d_18"/>
    <g id="text_4">
     <!-- p=0.1 -->
     <g transform="translate(213.092188 302.611563)scale(0.1 -0.1)">
      <use xlink:href="#DejaVuSans-70"/>
      <use x="63.476562" xlink:href="#DejaVuSans-3d"/>
      <use x="147.265625" xlink:href="#DejaVuSans-30"/>
      <use x="210.888672" xlink:href="#DejaVuSans-2e"/>
      <use x="242.675781" xlink:href="#DejaVuSans-31"/>
     </g>
    </g>
    <g id="line2d_19">
     <path d="M 185.092188 313.789688 
L 205.092188 313.789688 
" style="fill:none;stroke:#f49788;stroke-linecap:square;"/>
    </g>
    <g id="line2d_20"/>
    <g id="text_5">
     <!-- p=0.5 -->
     <g transform="translate(213.092188 317.289688)scale(0.1 -0.1)">
      <use xlink:href="#DejaVuSans-70"/>
      <use x="63.476562" xlink:href="#DejaVuSans-3d"/>
      <use x="147.265625" xlink:href="#DejaVuSans-30"/>
      <use x="210.888672" xlink:href="#DejaVuSans-2e"/>
      <use x="242.675781" xlink:href="#DejaVuSans-35"/>
     </g>
    </g>
    <g id="line2d_21">
     <path d="M 185.092188 328.467813 
L 205.092188 328.467813 
" style="fill:none;stroke:#46d186;stroke-linecap:square;"/>
    </g>
    <g id="line2d_22"/>
    <g id="text_6">
     <!-- p=1 -->
     <g transform="translate(213.092188 331.967813)scale(0.1 -0.1)">
      <use xlink:href="#DejaVuSans-70"/>
      <use x="63.476562" xlink:href="#DejaVuSans-3d"/>
      <use x="147.265625" xlink:href="#DejaVuSans-31"/>
     </g>
    </g>
    <g id="line2d_23">
     <path d="M 185.092188 343.145938 
L 205.092188 343.145938 
" style="fill:none;stroke:#15484b;stroke-linecap:square;"/>
    </g>
    <g id="line2d_24"/>
    <g id="text_7">
     <!-- p=2 -->
     <g transform="translate(213.092188 346.645938)scale(0.1 -0.1)">
      <use xlink:href="#DejaVuSans-70"/>
      <use x="63.476562" xlink:href="#DejaVuSans-3d"/>
      <use x="147.265625" xlink:href="#DejaVuSans-32"/>
     </g>
    </g>
    <g id="line2d_25">
     <path d="M 185.092188 357.824063 
L 205.092188 357.824063 
" style="fill:none;stroke:#53ce39;stroke-linecap:square;"/>
    </g>
    <g id="line2d_26"/>
    <g id="text_8">
     <!-- p=3 -->
     <g transform="translate(213.092188 361.324063)scale(0.1 -0.1)">
      <use xlink:href="#DejaVuSans-70"/>
      <use x="63.476562" xlink:href="#DejaVuSans-3d"/>
      <use x="147.265625" xlink:href="#DejaVuSans-33"/>
     </g>
    </g>
    <g id="line2d_27">
     <path d="M 185.092188 372.502188 
L 205.092188 372.502188 
" style="fill:none;stroke:#d34782;stroke-linecap:square;"/>
    </g>
    <g id="line2d_28"/>
    <g id="text_9">
     <!-- p=10 -->
     <g transform="translate(213.092188 376.002188)scale(0.1 -0.1)">
      <use xlink:href="#DejaVuSans-70"/>
      <use x="63.476562" xlink:href="#DejaVuSans-3d"/>
      <use x="147.265625" xlink:href="#DejaVuSans-31"/>
      <use x="210.888672" xlink:href="#DejaVuSans-30"/>
     </g>
    </g>
    <g id="line2d_29">
     <path d="M 185.092188 387.180313 
L 205.092188 387.180313 
" style="fill:none;stroke:#a9bed4;stroke-linecap:square;"/>
    </g>
    <g id="line2d_30"/>
    <g id="text_10">
     <!-- p=100 -->
     <g transform="translate(213.092188 390.680313)scale(0.1 -0.1)">
      <use xlink:href="#DejaVuSans-70"/>
      <use x="63.476562" xlink:href="#DejaVuSans-3d"/>
      <use x="147.265625" xlink:href="#DejaVuSans-31"/>
      <use x="210.888672" xlink:href="#DejaVuSans-30"/>
      <use x="274.511719" xlink:href="#DejaVuSans-30"/>
     </g>
    </g>
   </g>
  </g>
 </g>
 <defs>
  <clipPath id="p8952d29d28">
   <rect height="371.52" width="371.52" x="30.24" y="30.24"/>
  </clipPath>
 </defs>
</svg>
